<?xml version="1.0" encoding="UTF-8"?>
<svg xmlns="http://www.w3.org/2000/svg"
     xmlns:xlink="http://www.w3.org/1999/xlink"
     version="1.2"
     width="101.6mm" height="87.99mm" viewBox="0 0 101.6 87.99"
     stroke="none"
     fill="#000000"
     stroke-width="0.3"
     font-size="3.88"
>
<g stroke="#000000" fill="#000000" fill-opacity="0.000" stroke-width="0.1" id="fig-24c7c68846434b75b272815901020ca2-element-1">
  <path d="M12.7,101.6 L 0 101.6 6.35 88.9 z"/>
  <path d="M12.7,88.9 L 6.35 88.9 9.52 82.55 z"/>
  <path d="M15.87,82.55 L 9.52 82.55 12.7 76.2 z"/>
  <path d="M19.05,76.2 L 12.7 76.2 15.88 69.85 z"/>
  <path d="M19.05,69.85 L 15.88 69.85 17.46 66.68 z"/>
  <path d="M20.64,66.68 L 17.46 66.68 19.05 63.5 z"/>
  <path d="M25.4,63.5 L 19.05 63.5 22.22 57.15 z"/>
  <path d="M28.57,57.15 L 22.22 57.15 25.4 50.8 z"/>
  <path d="M38.1,50.8 L 25.4 50.8 31.75 38.1 z"/>
  <path d="M38.1,38.1 L 31.75 38.1 34.92 31.75 z"/>
  <path d="M41.28,31.75 L 34.92 31.75 38.1 25.4 z"/>
  <path d="M50.8,25.4 L 38.1 25.4 44.45 12.7 z"/>
  <path d="M50.8,12.7 L 44.45 12.7 47.62 6.35 z"/>
  <path d="M53.97,6.35 L 47.62 6.35 50.8 0 z"/>
</g>
</svg>
