<?xml version="1.0" encoding="UTF-8"?>
<svg xmlns="http://www.w3.org/2000/svg"
     xmlns:xlink="http://www.w3.org/1999/xlink"
     version="1.2"
     width="100mm" height="100mm" viewBox="0 0 100 100"
     stroke="none"
     fill="#000000"
     stroke-width="0.3"
     font-size="3.88"
>
<g stroke-width="0.1" font-size="5" stroke="#FFFFFF" id="fig-f7d1fc46a98748de976f2d5938d5203c-element-1">
  <path fill="none" d="M95,67.5 L 75 42.5"/>
  <path fill="none" d="M85,92.5 L 95 67.5"/>
  <path fill="none" d="M75,42.5 L 35 17.5"/>
  <path fill="none" d="M65,92.5 L 55 67.5"/>
  <path fill="none" d="M55,67.5 L 75 42.5"/>
  <path fill="none" d="M45,92.5 L 55 67.5"/>
  <path fill="none" d="M25,67.5 L 15 42.5"/>
  <path fill="none" d="M15,42.5 L 35 17.5"/>
  <path fill="none" d="M5,67.5 L 15 42.5"/>
  <g fill="#000000" id="fig-f7d1fc46a98748de976f2d5938d5203c-element-2">
    <circle cx="95" cy="67.5" r="5"/>
    <g fill="#FFFFFF" id="fig-f7d1fc46a98748de976f2d5938d5203c-element-3">
      <text x="92" y="68">100</text>
    </g>
  </g>
  <g fill="#FF0000" id="fig-f7d1fc46a98748de976f2d5938d5203c-element-4">
    <circle cx="85" cy="92.5" r="5"/>
    <g fill="#FFFFFF" id="fig-f7d1fc46a98748de976f2d5938d5203c-element-5">
      <text x="82" y="93">81</text>
    </g>
  </g>
  <g fill="#000000" id="fig-f7d1fc46a98748de976f2d5938d5203c-element-6">
    <circle cx="75" cy="42.5" r="5"/>
    <g fill="#FFFFFF" id="fig-f7d1fc46a98748de976f2d5938d5203c-element-7">
      <text x="72" y="43">64</text>
    </g>
  </g>
  <g fill="#000000" id="fig-f7d1fc46a98748de976f2d5938d5203c-element-8">
    <circle cx="65" cy="92.5" r="5"/>
    <g fill="#FFFFFF" id="fig-f7d1fc46a98748de976f2d5938d5203c-element-9">
      <text x="62" y="93">49</text>
    </g>
  </g>
  <g fill="#FF0000" id="fig-f7d1fc46a98748de976f2d5938d5203c-element-10">
    <circle cx="55" cy="67.5" r="5"/>
    <g fill="#FFFFFF" id="fig-f7d1fc46a98748de976f2d5938d5203c-element-11">
      <text x="52" y="68">36</text>
    </g>
  </g>
  <g fill="#000000" id="fig-f7d1fc46a98748de976f2d5938d5203c-element-12">
    <circle cx="45" cy="92.5" r="5"/>
    <g fill="#FFFFFF" id="fig-f7d1fc46a98748de976f2d5938d5203c-element-13">
      <text x="42" y="93">25</text>
    </g>
  </g>
  <g fill="#000000" id="fig-f7d1fc46a98748de976f2d5938d5203c-element-14">
    <circle cx="35" cy="17.5" r="5"/>
    <g fill="#FFFFFF" id="fig-f7d1fc46a98748de976f2d5938d5203c-element-15">
      <text x="32" y="18">16</text>
    </g>
  </g>
  <g fill="#000000" id="fig-f7d1fc46a98748de976f2d5938d5203c-element-16">
    <circle cx="25" cy="67.5" r="5"/>
    <g fill="#FFFFFF" id="fig-f7d1fc46a98748de976f2d5938d5203c-element-17">
      <text x="22" y="68">9</text>
    </g>
  </g>
  <g fill="#000000" id="fig-f7d1fc46a98748de976f2d5938d5203c-element-18">
    <circle cx="15" cy="42.5" r="5"/>
    <g fill="#FFFFFF" id="fig-f7d1fc46a98748de976f2d5938d5203c-element-19">
      <text x="12" y="43">4</text>
    </g>
  </g>
  <g fill="#000000" id="fig-f7d1fc46a98748de976f2d5938d5203c-element-20">
    <circle cx="5" cy="67.5" r="5"/>
    <g fill="#FFFFFF" id="fig-f7d1fc46a98748de976f2d5938d5203c-element-21">
      <text x="2" y="68">1</text>
    </g>
  </g>
</g>
</svg>
